
<svg width="34px" height="36px" viewBox="0 0 34 36" version="1.1" xmlns="http://www.w3.org/2000/svg" xmlns:xlink="http://www.w3.org/1999/xlink">
    <!-- Generator: Sketch 39.1 (31720) - http://www.bohemiancoding.com/sketch -->
    <desc>Created with Sketch.</desc>
    <defs></defs>
    <g id="Page-1" stroke="none" stroke-width="1" fill="none" fill-rule="evenodd">
        <path d="M18.3417313,18.00192 C18.3417313,20.34 14.7393497,20.34 14.7393497,18.00192 C14.7393497,15.66384 18.3417313,15.66384 18.3417313,18.00192" id="Fill-1" fill="#000000"></path>
        <path d="M16.5405405,21.76896 C18.6735296,21.76896 20.4115208,20.07936 20.4115208,18.00192 C20.4115208,15.9264 18.6755046,14.23488 16.5405405,14.23488 C14.4055764,14.23488 12.6695603,15.92448 12.6695603,18.00192 C12.6695603,20.07744 14.4055764,21.76896 16.5405405,21.76896 L16.5405405,21.76896 Z M16.5405405,15.36 C18.0370891,15.36 19.2541767,16.54512 19.2541767,18.00192 C19.2541767,19.45872 18.0370891,20.64384 16.5405405,20.64384 C15.0439919,20.64384 13.8269044,19.45872 13.8269044,18.00192 C13.8269044,16.54512 15.0439919,15.36 16.5405405,15.36 L16.5405405,15.36 Z" id="Fill-2" fill="#000000"></path>
        <path d="M33.4148544,10.29024 C33.4148544,9.01296 32.32438,7.97424 30.985979,7.97424 C30.2930944,7.97424 29.6692464,8.25552 29.2263041,8.70192 L19.1358891,3.1464 C19.2401997,2.88768 19.3031892,2.61024 19.3031892,2.31744 C19.3031892,1.03872 18.2147305,0 16.8743138,0 C15.5338971,0 14.4454385,1.03872 14.4454385,2.31552 C14.4454385,2.60832 14.508428,2.88576 14.6127386,3.14448 L4.52232353,8.7 C4.07938132,8.2536 3.45553325,7.97232 2.76264867,7.97232 C1.42223197,7.97232 0.333773296,9.01104 0.333773296,10.28832 C0.333773296,11.37024 1.11887451,12.2736 2.17205906,12.52704 L2.17205906,23.52384 C1.11887451,23.7768 0.333773296,24.68064 0.333773296,25.76256 C0.333773296,27.03936 1.42424764,28.07808 2.76264867,28.07808 C3.41421213,28.07808 4.00480175,27.82896 4.44169696,27.4296 L14.5633548,33.00192 C14.4943183,33.21744 14.4454385,33.44256 14.4454385,33.68064 C14.4454385,34.96128 15.5338971,36 16.8743138,36 C18.2147305,36 19.3031892,34.96128 19.3031892,33.68256 C19.3031892,33.44448 19.2543094,33.22128 19.1852729,33.00384 L29.3069307,27.43104 C29.7438259,27.8304 30.3344155,28.08 30.985979,28.08 C32.3263957,28.08 33.4148544,27.04128 33.4148544,25.76448 C33.4148544,24.68256 32.6297532,23.77872 31.5745529,23.52576 L31.5745529,12.52896 C32.6297532,12.27552 33.4148544,11.37168 33.4148544,10.29024 L33.4148544,10.29024 Z M30.985979,9.09744 C31.6748322,9.09744 32.2356908,9.63168 32.2356908,10.28832 C32.2356908,10.74 31.9681114,11.13024 31.5785843,11.3304 C31.495942,11.3736 31.4072528,11.40576 31.3165479,11.43168 C31.3069735,11.43552 31.2968952,11.43744 31.2873208,11.44128 C31.1905689,11.46576 31.0923053,11.47872 30.9879947,11.47872 C30.883684,11.47872 30.7849165,11.46384 30.6886685,11.44128 C30.6790941,11.43936 30.6690158,11.43552 30.6589375,11.4336 C30.5687365,11.40768 30.4800473,11.37552 30.397405,11.33232 C30.3777523,11.3232 30.3560839,11.31168 30.3384469,11.30256 C30.1671154,11.2032 30.025515,11.06448 29.92322,10.90128 C29.9191887,10.8936 29.9151574,10.8864 29.9111261,10.88064 C29.8677893,10.80768 29.8325152,10.72896 29.8047998,10.64832 C29.8007684,10.6368 29.797241,10.62384 29.7932097,10.61232 C29.7654943,10.52256 29.7498729,10.42896 29.7458416,10.33104 C29.7458416,10.31808 29.7418103,10.30512 29.7418103,10.29168 L29.7418103,10.28448 C29.7418103,10.18896 29.7574317,10.0968 29.7811157,10.00896 C29.7871627,9.9864 29.797241,9.96384 29.8027841,9.94128 C29.8244525,9.87552 29.8501522,9.81168 29.8834107,9.75168 C29.8955047,9.7296 29.9070947,9.70896 29.9212044,9.68832 C29.9605098,9.62448 30.007374,9.56448 30.0567578,9.50976 C30.0668361,9.49872 30.0764105,9.48768 30.0864888,9.47616 C30.1535097,9.40896 30.2260736,9.34896 30.3087158,9.29808 C30.4997,9.17232 30.734021,9.09744 30.985979,9.09744 L30.985979,9.09744 Z M29.2263041,24.17616 L24.8976652,21.85488 L24.8976652,14.31936 L29.2479725,11.90448 C29.5568731,12.2064 29.9524472,12.42192 30.3933737,12.52896 L30.3933737,23.52576 C29.9408571,23.63424 29.539236,23.8632 29.2263041,24.17616 L29.2263041,24.17616 Z M17.4649035,31.44384 L17.4649035,26.60064 L24.311107,22.82976 L28.6493203,25.15872 C28.5943934,25.3536 28.555088,25.55424 28.555088,25.7664 C28.555088,26.01552 28.6079991,26.25168 28.6850983,26.4768 L18.5810775,32.04 C18.27772,31.75104 17.8922243,31.54704 17.4649035,31.44384 L17.4649035,31.44384 Z M15.1655345,32.03808 L5.06352937,26.47488 C5.14062853,26.25024 5.19353972,26.0136 5.19353972,25.76448 C5.19353972,25.55232 5.15423426,25.35168 5.09729175,25.1568 L9.43550505,22.82976 L16.2837242,26.60064 L16.2837242,31.44384 C15.8564034,31.54704 15.4709076,31.75104 15.1655345,32.03808 L15.1655345,32.03808 Z M3.35323829,23.52576 L3.35323829,12.52896 C3.79416484,12.42192 4.18973894,12.2064 4.49863948,11.90448 L8.84894677,14.31936 L8.84894677,21.85296 L4.52232353,24.17424 C4.20939166,23.86128 3.80777057,23.63424 3.35323829,23.52576 L3.35323829,23.52576 Z M16.8743138,10.55232 L23.7185017,14.32128 L23.7185017,21.85872 L16.8743138,25.62576 L10.030126,21.85872 L10.030126,14.32128 L16.8743138,10.55232 Z M28.6614142,10.9296 L24.3070756,13.3464 L17.4649035,9.57744 L17.4649035,4.55616 C17.8347778,4.46832 18.1673624,4.29744 18.4490515,4.06704 L28.6513359,9.68448 C28.5964091,9.87936 28.5571036,10.08 28.5571036,10.29024 C28.5571036,10.51296 28.6004404,10.72512 28.6614142,10.9296 L28.6614142,10.9296 Z M15.6261138,2.31552 C15.6261138,1.65936 16.1854606,1.12512 16.8743138,1.12512 C17.5631671,1.12512 18.1225139,1.65936 18.1225139,2.31552 C18.1225139,2.40384 18.1104199,2.48832 18.0927829,2.5704 C18.0711145,2.66448 18.0358403,2.7504 17.9945192,2.83296 C17.9864566,2.85024 17.9768822,2.86512 17.9668038,2.88192 C17.9254827,2.95296 17.8801303,3.01872 17.8252034,3.08064 C17.8171408,3.09024 17.8090781,3.09936 17.7995037,3.10896 C17.6634464,3.25104 17.4926188,3.36384 17.2976033,3.43104 C17.1655773,3.47808 17.0239769,3.50832 16.8743138,3.50832 C16.7246508,3.50832 16.5830504,3.47808 16.4510244,3.43296 C16.2560088,3.36576 16.0851813,3.25296 15.949124,3.1104 C15.9410613,3.10128 15.9335026,3.09168 15.9254399,3.08256 C15.8705131,3.02064 15.8231449,2.95296 15.7818238,2.88384 C15.7717455,2.86704 15.7621711,2.85168 15.7541084,2.83488 C15.7107717,2.75232 15.6754975,2.66448 15.6558448,2.5704 C15.6361921,2.49024 15.6261138,2.40384 15.6261138,2.31552 L15.6261138,2.31552 Z M15.2995762,4.06704 C15.5812652,4.29744 15.9138498,4.4664 16.2837242,4.55616 L16.2837242,9.57744 L9.44155205,13.34448 L5.08721343,10.92768 C5.15020294,10.7232 5.19353972,10.51104 5.19353972,10.28832 C5.19353972,10.07808 5.15423426,9.87552 5.09930741,9.68256 L15.2995762,4.06704 Z M1.51495253,10.29024 C1.51495253,9.6336 2.07379543,9.09936 2.76264867,9.09936 C3.0146067,9.09936 3.24892767,9.17232 3.44394318,9.29424 C3.52456975,9.34512 3.59914932,9.40512 3.66617016,9.47232 C3.67624848,9.48384 3.68582288,9.49488 3.6959012,9.5064 C3.74679673,9.56064 3.79214917,9.62064 3.83145462,9.68448 C3.84556427,9.70512 3.85715434,9.72768 3.86874441,9.74832 C3.90049112,9.80832 3.92820651,9.87168 3.9498749,9.93744 C3.95743364,9.96 3.96549629,9.98256 3.97154329,10.00512 C3.99472342,10.09296 4.00883307,10.18512 4.01084874,10.28064 L4.01084874,10.28832 C4.01084874,10.30128 4.00681741,10.31424 4.00681741,10.32768 C4.00278608,10.42512 3.98514902,10.51872 3.9594493,10.60896 C3.95541797,10.62 3.95138664,10.63296 3.94785923,10.64448 C3.92014385,10.72704 3.88486972,10.80384 3.84153294,10.8768 C3.83750162,10.88448 3.83347029,10.89168 3.82943896,10.89744 C3.727144,11.06064 3.58352792,11.19744 3.41219647,11.29872 C3.39254374,11.30976 3.37289101,11.31936 3.35323829,11.32896 C3.27059606,11.37168 3.18190683,11.40384 3.09120194,11.42976 C3.08162754,11.4336 3.07154921,11.43552 3.06197481,11.43936 C2.96522293,11.46384 2.8669593,11.4768 2.76264867,11.4768 C2.65833805,11.4768 2.56007442,11.46192 2.46332254,11.43936 C2.45374813,11.43744 2.44366981,11.4336 2.43409541,11.43168 C2.34339052,11.40576 2.25470129,11.3736 2.17205906,11.3304 C1.78253195,11.13168 1.51495253,10.74192 1.51495253,10.29024 L1.51495253,10.29024 Z M1.51495253,25.7664 C1.51495253,25.31424 1.78253195,24.92448 2.17205906,24.72384 C2.25470129,24.68064 2.34137485,24.64896 2.43409541,24.62256 C2.44366981,24.61872 2.45374813,24.6168 2.46332254,24.61296 C2.56007442,24.58896 2.65833805,24.57552 2.76264867,24.57552 C2.8669593,24.57552 2.96522293,24.5904 3.06197481,24.61296 C3.07154921,24.61488 3.08162754,24.61872 3.09120194,24.62256 C3.18190683,24.64896 3.27059606,24.68064 3.35323829,24.72384 C3.37893801,24.7368 3.40614947,24.74832 3.42983353,24.7632 C3.59511799,24.86256 3.73117533,25.00128 3.83145462,25.16064 C3.83951728,25.17552 3.84707602,25.1904 3.85715434,25.20384 C3.89444413,25.27104 3.92619084,25.34064 3.9498749,25.4136 C3.95541797,25.4304 3.96146496,25.44768 3.96549629,25.46448 C3.99119601,25.55232 4.00681741,25.6464 4.00883307,25.74192 C4.00883307,25.7496 4.01084874,25.7568 4.01084874,25.76448 C4.01084874,25.80768 4.00278608,25.84704 3.99673909,25.88832 C3.95138664,26.29488 3.69388554,26.64 3.32753857,26.82 C3.15620711,26.90448 2.96522293,26.9568 2.76063301,26.9568 C2.07379543,26.9568 1.51495253,26.42256 1.51495253,25.7664 L1.51495253,25.7664 Z M16.8743138,34.87488 C16.1854606,34.87488 15.624602,34.34064 15.624602,33.68256 C15.624602,33.65232 15.6321608,33.62448 15.6341764,33.59424 C15.6659231,33.18576 15.9138498,32.83488 16.2701185,32.64576 C16.2741498,32.64384 16.2776772,32.64192 16.2837242,32.63808 C16.3663665,32.59488 16.4550557,32.5632 16.5457606,32.5368 C16.555335,32.53296 16.5654133,32.53104 16.5749877,32.5296 C16.6717396,32.50512 16.7700032,32.49168 16.8743138,32.49168 C16.9786245,32.49168 17.0768881,32.50704 17.17364,32.5296 C17.1832144,32.53104 17.1932927,32.53488 17.2028671,32.53872 C17.293572,32.56512 17.3822612,32.5968 17.4649035,32.64 C17.4689348,32.64192 17.4729661,32.64384 17.4764935,32.64576 C17.8347778,32.83488 18.0811928,33.18576 18.1124356,33.59424 C18.1144512,33.62448 18.1225139,33.65232 18.1225139,33.68256 C18.1225139,34.34064 17.5631671,34.87488 16.8743138,34.87488 L16.8743138,34.87488 Z M32.2336751,25.7664 C32.2336751,26.42256 31.6728166,26.9568 30.9839633,26.9568 C30.7793734,26.9568 30.5883892,26.90448 30.4170578,26.82 C30.0507108,26.64 29.7932097,26.29488 29.7478573,25.88832 C29.7438259,25.84704 29.7342515,25.80576 29.7342515,25.76448 C29.7342515,25.7568 29.7357633,25.7496 29.7357633,25.74192 C29.7377789,25.6464 29.7539042,25.55424 29.7791001,25.46448 C29.7831314,25.44768 29.791194,25.4304 29.7952254,25.4136 C29.8189094,25.34064 29.8501522,25.2696 29.887442,25.20384 C29.8955047,25.18896 29.9030634,25.1736 29.9131417,25.16064 C30.013421,25.00128 30.1494783,24.86448 30.3147628,24.7632 C30.3384469,24.74832 30.3656583,24.7368 30.3913581,24.72384 C30.4740003,24.68064 30.5606738,24.64896 30.6533944,24.62256 C30.6629688,24.61872 30.6730471,24.6168 30.6826215,24.61296 C30.7793734,24.58896 30.877637,24.57552 30.9819477,24.57552 C31.0862583,24.57552 31.1845219,24.5904 31.2812738,24.61296 C31.2908482,24.61488 31.3009265,24.61872 31.3105009,24.62256 C31.4012058,24.64896 31.4898951,24.68064 31.5725373,24.72384 C31.9660957,24.92448 32.2336751,25.31232 32.2336751,25.7664 L32.2336751,25.7664 Z" id="Fill-3" fill="#000000"></path>
    </g>
</svg>
